<svg id="Group_1358" data-name="Group 1358" xmlns="http://www.w3.org/2000/svg" width="18" height="15.369" viewBox="0 0 18 15.369">
  <path id="Path_71" data-name="Path 71" d="M853.628,381.085c.88,0,1.76,0,2.641,0a2.567,2.567,0,0,1,2.526,1.842,29.463,29.463,0,0,1,1.048,3.968,9.094,9.094,0,0,1,.16,2.642,2.322,2.322,0,0,1-.852,1.556,8.816,8.816,0,0,1-2.2,1.312,12.321,12.321,0,0,1-2.427.784,4.522,4.522,0,0,1-2.035-.06,12.031,12.031,0,0,1-3.865-1.651,5.858,5.858,0,0,1-.577-.454,2.341,2.341,0,0,1-.8-1.688,10.176,10.176,0,0,1,.219-2.639,30.476,30.476,0,0,1,1.027-3.819,2.568,2.568,0,0,1,2.445-1.792C851.834,381.079,852.731,381.085,853.628,381.085Zm0,10.906a6.492,6.492,0,0,0,2.392-.488,1.207,1.207,0,0,0,.766-1.188,5.85,5.85,0,0,0-.9-2.835A2.631,2.631,0,0,0,853,386.305a2.787,2.787,0,0,0-1.769,1.428,6.26,6.26,0,0,0-.739,2.462,1.244,1.244,0,0,0,.757,1.306A6.465,6.465,0,0,0,853.625,391.991Zm-2.717-8.006a.8.8,0,1,0,.794.8A.8.8,0,0,0,850.908,383.985Zm4.663.788a.8.8,0,1,0,.8-.788A.8.8,0,0,0,855.571,384.773Z" transform="translate(-846.563 -379.164)" fill="#c85151"/>
  <path id="Path_72" data-name="Path 72" d="M1234.179,594.211c0,.552,0,1.1,0,1.655,0,.128.04.162.162.159.284-.008.568,0,.852,0a.239.239,0,0,1,.258.142.237.237,0,0,1-.088.267q-1.029,1.039-2.056,2.08c-.075.076-.121.064-.189-.006q-1.032-1.048-2.068-2.091a.221.221,0,0,1-.069-.256.223.223,0,0,1,.229-.136c.29,0,.58-.007.869,0,.133,0,.17-.039.169-.17,0-1.075,0-2.15,0-3.226,0-.355.1-.456.457-.457s.713,0,1.07,0c.3,0,.409.114.41.418Q1234.179,593.4,1234.179,594.211Z" transform="translate(-1217.464 -583.193)" fill="#c85151"/>
  <path id="Path_73" data-name="Path 73" d="M831.094,324.743a3.629,3.629,0,0,0-1.351.56,3.794,3.794,0,0,0-1.352,1.86c-.08.216-.083.219-.234.048a2.842,2.842,0,0,1-.788-1.832,1.563,1.563,0,0,1,1.8-1.658,2.95,2.95,0,0,1,1.853.933A1,1,0,0,1,831.094,324.743Z" transform="translate(-827.369 -323.711)" fill="#c85151"/>
  <path id="Path_74" data-name="Path 74" d="M1143.521,325.7a2.892,2.892,0,0,1-.85,1.787c-.119.129-.13,0-.154-.07a4.087,4.087,0,0,0-.936-1.543,3.264,3.264,0,0,0-1.587-.875c-.058-.014-.15-.024-.162-.058-.024-.069.061-.109.106-.153a2.8,2.8,0,0,1,1.985-.862A1.581,1.581,0,0,1,1143.521,325.7Z" transform="translate(-1129.379 -323.922)" fill="#c85151"/>
  <path id="Path_75" data-name="Path 75" d="M987.708,573c.284,0,.568,0,.852,0a.4.4,0,0,1,.293.693c-.184.186-.367.373-.557.554a.219.219,0,0,0-.068.238.9.9,0,0,0,.825.767.493.493,0,0,1,.416.508.481.481,0,0,1-.471.454,1.542,1.542,0,0,1-1.194-.542c-.091-.1-.129-.089-.213,0a1.561,1.561,0,0,1-1.145.54.481.481,0,0,1-.516-.458.488.488,0,0,1,.466-.511.934.934,0,0,0,.786-.847.2.2,0,0,0-.085-.154c-.173-.174-.345-.348-.521-.519a.4.4,0,0,1-.136-.478.409.409,0,0,1,.431-.249C987.151,573,987.429,573,987.708,573Z" transform="translate(-980.628 -564.661)" fill="#c85151"/>
</svg>
