<svg id="Group_1357" data-name="Group 1357" xmlns="http://www.w3.org/2000/svg" width="18" height="15.423" viewBox="0 0 18 15.423">
  <path id="Path_76" data-name="Path 76" d="M704.331,323.4c.034.3.056.554.093.806a4.252,4.252,0,0,0,.4,1.325,1.724,1.724,0,0,0,1.989,1.071,3.945,3.945,0,0,0,1.669-.889,8.826,8.826,0,0,1,1.551-1.1,4.015,4.015,0,0,1,4.334.386c.515.363.986.8,1.51,1.15a2.8,2.8,0,0,0,1.345.487,1.7,1.7,0,0,0,1.7-1.056,4.749,4.749,0,0,0,.487-1.894c0-.026,0-.052.006-.077.008-.055-.013-.139.044-.152s.066.075.083.124a11.007,11.007,0,0,1,.386,1.319,6.9,6.9,0,0,1,.153,2.534,2.843,2.843,0,0,1-2.234,2.594,4.368,4.368,0,0,1-.755.091c-.06,0-.12-.008-.125.1a6.686,6.686,0,0,1-.733,2.508c-.329.724-.693,1.426-.99,2.17-.053.132-.059.344-.171.373-.082.021-.2-.134-.3-.21a4.212,4.212,0,0,0-2.053-.791,5.809,5.809,0,0,0-2.62.219,3.734,3.734,0,0,0-1.3.735c-.054.047-.107.134-.158-.01-.335-.953-.813-1.819-1.214-2.732a6.2,6.2,0,0,1-.622-2.25c-.006-.134-.082-.113-.15-.116a3.508,3.508,0,0,1-1.138-.209,3.011,3.011,0,0,1-1.873-2.946,8.666,8.666,0,0,1,.616-3.46A.679.679,0,0,1,704.331,323.4Zm11.049,7.095a.964.964,0,1,0-.948,1.11A1.051,1.051,0,0,0,715.38,330.491Zm-5.083-.014a.962.962,0,1,0-.951,1.124A1.046,1.046,0,0,0,710.3,330.477Z" transform="translate(-703.637 -323.396)" fill="#64a879"/>
  <path id="Path_77" data-name="Path 77" d="M861.144,630.755a5.387,5.387,0,0,1,2.383.52,2.194,2.194,0,0,1,.805,3.276,1.674,1.674,0,0,1-1.85.607,4.158,4.158,0,0,1-1.325-.582.243.243,0,0,0-.311,0,4.114,4.114,0,0,1-1.21.557,1.725,1.725,0,0,1-2.328-1.529,2.122,2.122,0,0,1,1.618-2.527A6.5,6.5,0,0,1,861.144,630.755Zm1.632,3.078a.9.9,0,0,0,.805-.444.448.448,0,0,0-.175-.646.906.906,0,0,0-1.2.435.435.435,0,0,0,.171.542A.67.67,0,0,0,862.776,633.833Zm-3.663,0c.4,0,.614-.122.69-.339a.588.588,0,0,0-.27-.648.937.937,0,0,0-.712-.178.514.514,0,0,0-.447.321.491.491,0,0,0,.119.518A.878.878,0,0,0,859.114,633.832Z" transform="translate(-852.591 -621.29)" fill="#64a879"/>
  <path id="Path_78" data-name="Path 78" d="M1110.762,598.555c0,.634,0,1.268,0,1.9,0,.316-.134.452-.445.454q-.669,0-1.339,0c-.322,0-.456-.137-.457-.464,0-1.261,0-2.522,0-3.783,0-.179-.049-.232-.227-.224-.316.015-.633,0-.951,0a.276.276,0,0,1-.291-.146.257.257,0,0,1,.087-.311q1.195-1.206,2.387-2.414c.1-.1.15-.077.233.008q1.178,1.2,2.36,2.386c.09.091.167.187.107.325s-.175.154-.306.153c-.33,0-.66,0-.99,0-.135,0-.176.037-.175.174C1110.766,597.262,1110.763,597.908,1110.762,598.555Z" transform="translate(-1094.252 -585.489)" fill="#64a879"/>
</svg>
