<svg id="download" xmlns="http://www.w3.org/2000/svg" width="84.483" height="19.613" viewBox="0 0 84.483 19.613">
  <path id="Path_58" data-name="Path 58" d="M12.286,14.271,8.754,15.79v-.152a10.96,10.96,0,0,1-2.15.3c-3.322-.032-5.959-1.751-5.989-3.8v-.759A7.083,7.083,0,0,0,6.6,13.968a9.215,9.215,0,0,0,2.611-.3l.307-.759A10.25,10.25,0,0,1,6.6,13.36c-3.322.006-5.959-1.712-5.989-3.8V8.958A7.243,7.243,0,0,0,6.6,11.387a7.5,7.5,0,0,0,3.379-.607l.154-.759a7.3,7.3,0,0,1-3.532.759C3.282,10.819.645,9.1.614,6.984V6.376A7.576,7.576,0,0,0,6.6,8.958,9.675,9.675,0,0,0,10.75,7.895l.154-.911A8.053,8.053,0,0,1,6.6,8.35C3.282,8.277.645,6.558.614,4.4.645,2.353,3.282.635,6.6.607a7.152,7.152,0,0,1,4.915,1.822l.107.176.774,0-.113-.179A7.132,7.132,0,0,0,6.6,0C2.928,0,0,2,0,4.4V12.3c.129,2.343,2.99,4.251,6.6,4.251a7.576,7.576,0,0,0,5.682-2.277Z" fill="#3a3a3a"/>
  <path id="Path_59" data-name="Path 59" d="M24.917,24.306l1.24-5.21-3.565,1.532,2.17-9.04H20.577l1.085-4.444H34.991l-1.085,4.444h-4.34l-.93,2.452,4.8-1.992Zm2.17-6.283-.62,3.065,5.115-7.661L27.4,15.266l1.86-4.291h4.185l.775-3.218H22.127l-.775,3.218h4.185l-2.015,8.581,3.565-1.532ZM44.174,10.08a1.672,1.672,0,0,1-.563,1.2,1.977,1.977,0,0,1-1.338.438,1.776,1.776,0,0,1-1.429-.611,2.507,2.507,0,0,1-.521-1.679V9.139a2.831,2.831,0,0,1,.24-1.2,1.8,1.8,0,0,1,.686-.8A2.144,2.144,0,0,1,43.6,7.3a1.8,1.8,0,0,1,.577,1.229h-.973a.987.987,0,0,0-.255-.663.943.943,0,0,0-.667-.206.826.826,0,0,0-.728.349,1.953,1.953,0,0,0-.248,1.082V9.45a2.093,2.093,0,0,0,.232,1.119.812.812,0,0,0,.732.354.96.96,0,0,0,.673-.206.929.929,0,0,0,.255-.637h.973ZM49.2,9.4a2.847,2.847,0,0,1-.247,1.223,1.854,1.854,0,0,1-.705.811,2.085,2.085,0,0,1-2.1,0,1.876,1.876,0,0,1-.714-.806,2.772,2.772,0,0,1-.256-1.205V9.191a2.833,2.833,0,0,1,.251-1.227,1.873,1.873,0,0,1,.711-.815,2.082,2.082,0,0,1,2.1,0,1.873,1.873,0,0,1,.71.814A2.828,2.828,0,0,1,49.2,9.188Zm-.986-.214a1.99,1.99,0,0,0-.266-1.129.94.94,0,0,0-1.515,0,1.964,1.964,0,0,0-.269,1.118V9.4a2.013,2.013,0,0,0,.266,1.122.932.932,0,0,0,1.518.015,2,2,0,0,0,.266-1.121Zm3.234,2.468h-.973V6.93h.973Zm5.249,0h-.973L53.828,8.545v3.107h-.973V6.93h.973l1.9,3.114V6.93h.97Zm4.817-3.935H60.066v3.935h-.973V7.718H57.665V6.93h3.847Zm3.9,1.888H63.547v1.265h2.193v.782H62.573V6.93h3.16v.788H63.547V8.844h1.868v.762Zm2.374,1.265h2.066v.782H66.816V6.93h.973v3.942Zm5.972-1.265H71.893v1.265h2.193v.782H70.92V6.93h3.159v.788H71.893V8.844h1.868v.762Zm5.138,1.45a1.688,1.688,0,0,1-.743.488,3.107,3.107,0,0,1-1.064.174,2.107,2.107,0,0,1-1.075-.268,1.785,1.785,0,0,1-.714-.777,2.734,2.734,0,0,1-.258-1.2V9.155a2.9,2.9,0,0,1,.239-1.224,1.763,1.763,0,0,1,.687-.791,2.264,2.264,0,0,1,2.367.127A1.712,1.712,0,0,1,78.9,8.432h-.947a.941.941,0,0,0-.287-.594.918.918,0,0,0-.611-.188.864.864,0,0,0-.756.373,1.964,1.964,0,0,0-.263,1.109v.3a1.869,1.869,0,0,0,.282,1.122.967.967,0,0,0,.827.38,1.079,1.079,0,0,0,.782-.233V9.888h-.885V9.171H78.9Zm3.043-1.132h-.775v1.729h-.973V6.93h1.755a1.981,1.981,0,0,1,1.291.373,1.286,1.286,0,0,1,.454,1.054,1.452,1.452,0,0,1-.209.806,1.428,1.428,0,0,1-.634.514l1.022,1.93v.046H82.828Zm-.775-.788h.785a.8.8,0,0,0,.568-.187.666.666,0,0,0,.2-.514.713.713,0,0,0-.19-.525.789.789,0,0,0-.582-.191h-.782V9.136Zm6.439,1.544H85.9l-.324.973H84.541L86.3,6.93h.9l1.768,4.723H87.934l-.328-.973Zm-1.443-.788h1.181L86.75,8.123l-.587,1.768Zm4.726.1v1.664h-.973V6.93h1.842a2.128,2.128,0,0,1,.936.195,1.431,1.431,0,0,1,.621.553,1.542,1.542,0,0,1,.217.816,1.355,1.355,0,0,1-.475,1.095,1.979,1.979,0,0,1-1.315.4h-.853Zm0-.788h.869a.854.854,0,0,0,.589-.182.66.66,0,0,0,.2-.519.779.779,0,0,0-.2-.562.765.765,0,0,0-.564-.22h-.892Zm7.662,2.452h-.973V9.629h-1.9v2.024h-.973V6.93h.973V8.844h1.9V6.93h.973Z" transform="translate(-14.068 -4.693)" fill="#fabf2c"/>
  <path id="Path_60" data-name="Path 60" d="M85.676,34.3H84.624v2.9h-.581V34.3H83V33.83h2.676Zm1.133.667a.881.881,0,0,1,.7-.32q.8,0,.813.915V37.2h-.563V35.586a.5.5,0,0,0-.112-.367.46.46,0,0,0-.33-.108.543.543,0,0,0-.505.3V37.2h-.563V33.645h.563Zm3.373,2.28a1.165,1.165,0,0,1-.868-.337,1.224,1.224,0,0,1-.332-.9v-.07a1.5,1.5,0,0,1,.145-.671,1.1,1.1,0,0,1,.406-.46,1.075,1.075,0,0,1,.584-.164.984.984,0,0,1,.791.326,1.383,1.383,0,0,1,.279.925v.227H89.55a.754.754,0,0,0,.208.491.622.622,0,0,0,.457.181.762.762,0,0,0,.63-.313l.3.29a1.013,1.013,0,0,1-.4.349A1.263,1.263,0,0,1,90.182,37.25ZM90.115,35.1a.474.474,0,0,0-.374.163.84.84,0,0,0-.182.452h1.072v-.042a.682.682,0,0,0-.15-.427.471.471,0,0,0-.366-.145Zm3.269,2.1v-2.09H93V34.7h.382v-.229a.861.861,0,0,1,.232-.644.887.887,0,0,1,.649-.227,1.3,1.3,0,0,1,.315.042l-.014.44a1.109,1.109,0,0,0-.215-.019.361.361,0,0,0-.4.415V34.7h.509v.417h-.509V37.2Zm3.193-.245a.873.873,0,0,1-.7.292.777.777,0,0,1-.617-.239,1.015,1.015,0,0,1-.21-.691V34.7h.563v1.617q0,.477.4.478a.556.556,0,0,0,.554-.294V34.7h.563V37.2H96.59Zm2.013-2.871V34.7h.443v.417H98.59v1.4a.308.308,0,0,0,.057.208.263.263,0,0,0,.2.064.863.863,0,0,0,.2-.023V37.2a1.386,1.386,0,0,1-.371.053q-.649,0-.649-.716v-1.42h-.413V34.7h.412v-.609h.563Zm2.581,2.871a.874.874,0,0,1-.7.292.778.778,0,0,1-.618-.239,1.015,1.015,0,0,1-.21-.691V34.7h.563v1.617q0,.477.4.478a.556.556,0,0,0,.554-.294V34.7h.563V37.2h-.531Zm2.62-1.747a1.393,1.393,0,0,0-.229-.018.516.516,0,0,0-.521.3V37.2h-.563V34.7h.538l.014.28a.635.635,0,0,1,.565-.326.53.53,0,0,1,.2.032ZM105.4,37.25a1.165,1.165,0,0,1-.868-.337,1.224,1.224,0,0,1-.332-.9v-.07a1.5,1.5,0,0,1,.145-.671,1.1,1.1,0,0,1,.406-.46,1.075,1.075,0,0,1,.584-.164.984.984,0,0,1,.791.326,1.383,1.383,0,0,1,.279.925v.227h-1.638a.754.754,0,0,0,.208.491.622.622,0,0,0,.457.181.762.762,0,0,0,.63-.313l.3.29a1.014,1.014,0,0,1-.4.349A1.263,1.263,0,0,1,105.4,37.25Zm-.067-2.148a.474.474,0,0,0-.374.163.84.84,0,0,0-.182.452h1.072v-.042a.682.682,0,0,0-.15-.427.471.471,0,0,0-.366-.145Zm2.965.825a1.477,1.477,0,0,1,.146-.664,1.066,1.066,0,0,1,.41-.454,1.157,1.157,0,0,1,.607-.158,1.1,1.1,0,0,1,.823.326,1.285,1.285,0,0,1,.342.867l0,.132a1.493,1.493,0,0,1-.142.663,1.053,1.053,0,0,1-.408.452,1.164,1.164,0,0,1-.613.16,1.089,1.089,0,0,1-.849-.353,1.356,1.356,0,0,1-.319-.942Zm.563.049a1.009,1.009,0,0,0,.16.606.557.557,0,0,0,.888,0,1.113,1.113,0,0,0,.159-.651,1,1,0,0,0-.163-.6.551.551,0,0,0-.882,0,1.1,1.1,0,0,0-.162.655ZM111.49,37.2v-2.09h-.382V34.7h.382v-.229a.861.861,0,0,1,.232-.644.887.887,0,0,1,.649-.227,1.3,1.3,0,0,1,.315.042l-.014.44a1.109,1.109,0,0,0-.215-.019.362.362,0,0,0-.4.415V34.7h.51v.417h-.51V37.2Zm3.575-2.507.016.262a.9.9,0,0,1,.723-.308.693.693,0,0,1,.688.385.888.888,0,0,1,.769-.385.781.781,0,0,1,.618.229,1.01,1.01,0,0,1,.208.676V37.2h-.563V35.573a.5.5,0,0,0-.1-.35.455.455,0,0,0-.345-.111.469.469,0,0,0-.314.1.544.544,0,0,0-.171.27l0,1.719h-.563v-1.65a.4.4,0,0,0-.452-.443.5.5,0,0,0-.48.276V37.2h-.563V34.7Zm3.684,1.231a1.482,1.482,0,0,1,.146-.664,1.066,1.066,0,0,1,.41-.454,1.156,1.156,0,0,1,.607-.158,1.1,1.1,0,0,1,.823.326,1.284,1.284,0,0,1,.342.867l0,.132a1.493,1.493,0,0,1-.142.663,1.053,1.053,0,0,1-.408.452,1.163,1.163,0,0,1-.613.16,1.088,1.088,0,0,1-.849-.353,1.355,1.355,0,0,1-.319-.942v-.028Zm.563.048a1.009,1.009,0,0,0,.16.606.557.557,0,0,0,.889,0,1.116,1.116,0,0,0,.159-.651,1,1,0,0,0-.164-.6.551.551,0,0,0-.882,0,1.1,1.1,0,0,0-.162.655Zm2.956-1.279.016.29a.9.9,0,0,1,.73-.336q.783,0,.8.9V37.2h-.563V35.579a.516.516,0,0,0-.1-.353.433.433,0,0,0-.337-.115.543.543,0,0,0-.507.308V37.2h-.563V34.7Zm3.41,2.553a1.165,1.165,0,0,1-.867-.337,1.222,1.222,0,0,1-.332-.9v-.07a1.5,1.5,0,0,1,.145-.671,1.1,1.1,0,0,1,.407-.46,1.075,1.075,0,0,1,.584-.164.985.985,0,0,1,.792.326,1.383,1.383,0,0,1,.279.925v.227h-1.638a.753.753,0,0,0,.207.491.623.623,0,0,0,.458.181.762.762,0,0,0,.63-.313l.3.29a1.014,1.014,0,0,1-.4.349A1.264,1.264,0,0,1,125.678,37.25Zm-.067-2.148a.475.475,0,0,0-.374.163.84.84,0,0,0-.182.452h1.073v-.042a.682.682,0,0,0-.151-.427.47.47,0,0,0-.366-.145Zm2.546,1.3.51-1.7h.6l-1,2.887a.81.81,0,0,1-.778.633,1.006,1.006,0,0,1-.271-.042v-.436l.107.007a.549.549,0,0,0,.321-.078.514.514,0,0,0,.17-.261l.081-.216-.88-2.5h.607l.531,1.7Z" transform="translate(-56.744 -22.968)" fill="#3a3a3a"/>
</svg>
