<svg xmlns="http://www.w3.org/2000/svg" xmlns:xlink="http://www.w3.org/1999/xlink" width="424.86" height="352.399" viewBox="0 0 424.86 352.399">
  <defs>
    <radialGradient id="radial-gradient" cx="0.475" cy="0.517" r="1.391" gradientUnits="objectBoundingBox">
      <stop offset="0" stop-color="#42e8e0"/>
      <stop offset="0.106" stop-color="#36b5bf"/>
      <stop offset="0.22" stop-color="#2c87a0"/>
      <stop offset="0.338" stop-color="#235f86"/>
      <stop offset="0.459" stop-color="#1b3e71"/>
      <stop offset="0.582" stop-color="#162560"/>
      <stop offset="0.711" stop-color="#121355"/>
      <stop offset="0.846" stop-color="#0f084e"/>
      <stop offset="1" stop-color="#0f054c"/>
    </radialGradient>
    <linearGradient id="linear-gradient" y1="0.5" x2="1" y2="0.5" gradientUnits="objectBoundingBox">
      <stop offset="0" stop-color="#bcbeff"/>
      <stop offset="0.151" stop-color="#a2a6f5"/>
      <stop offset="0.387" stop-color="#8188e8"/>
      <stop offset="0.612" stop-color="#6a72de"/>
      <stop offset="0.822" stop-color="#5b65d8"/>
      <stop offset="1" stop-color="#5761d7"/>
    </linearGradient>
    <linearGradient id="linear-gradient-2" x1="0.643" y1="0.828" x2="0.357" y2="0.172" xlink:href="#radial-gradient"/>
    <clipPath id="clip-path">
      <path id="Path_343" data-name="Path 343" d="M371.482,307.307,253.228,239.014c-5.276-3.046-4.614-8.367,1.479-11.885L484.237,94.644c6.092-3.518,15.308-3.9,20.586-.852l118.254,68.293c5.276,3.046,4.614,8.367-1.479,11.885L392.067,306.455C385.975,309.971,376.759,310.353,371.482,307.307Z" transform="translate(-249.666 -91.735)" opacity="0.5" fill="url(#radial-gradient)" style="mix-blend-mode: lighten;isolation: isolate"/>
    </clipPath>
    <linearGradient id="linear-gradient-3" x1="0.099" y1="-0.384" x2="0.893" y2="0.768" gradientUnits="objectBoundingBox">
      <stop offset="0" stop-color="#bcbeff"/>
      <stop offset="0.227" stop-color="#aaadf7"/>
      <stop offset="0.68" stop-color="#7b82e5"/>
      <stop offset="1" stop-color="#5761d7"/>
    </linearGradient>
    <linearGradient id="linear-gradient-4" y1="0.5" x2="1" y2="0.5" gradientUnits="objectBoundingBox">
      <stop offset="0" stop-color="#e9e9fd"/>
      <stop offset="0.36" stop-color="#d2d2f9"/>
      <stop offset="0.706" stop-color="#c4c3f6"/>
      <stop offset="1" stop-color="#c0bff6"/>
    </linearGradient>
    <linearGradient id="linear-gradient-14" x1="0.113" y1="0.194" x2="0.87" y2="1.433" gradientUnits="objectBoundingBox">
      <stop offset="0.242" stop-color="#5761d7"/>
      <stop offset="0.392" stop-color="#7a81e5"/>
      <stop offset="0.546" stop-color="#979bf0"/>
      <stop offset="0.7" stop-color="#abaef8"/>
      <stop offset="0.852" stop-color="#b7bafd"/>
      <stop offset="1" stop-color="#bcbeff"/>
    </linearGradient>
    <clipPath id="clip-path-2">
      <path id="Path_394" data-name="Path 394" d="M430.071,203.975l-14.64,8.438-58.3-33.659V114.025l72.938,42.111Z" transform="translate(-357.133 -114.025)" fill="none"/>
    </clipPath>
  </defs>
  <g id="Group_196" data-name="Group 196" transform="translate(-245.915 -54.784)">
    <g id="Group_151" data-name="Group 151" transform="translate(245.915 146.316)">
      <path id="Path_335" data-name="Path 335" d="M381.723,340.173a19.089,19.089,0,0,1-9.369-2.154l-122.626-70.8c-2.459-1.419-3.813-3.4-3.813-5.564,0-2.6,1.947-5.217,5.341-7.175L485.126,119.458c6.359-3.671,16.02-4.068,21.538-.882l122.624,70.8c2.459,1.42,3.813,3.4,3.813,5.564,0,2.6-1.946,5.217-5.34,7.175L393.891,337.138A25.008,25.008,0,0,1,381.723,340.173Zm-9.105-2.611c5.373,3.1,14.8,2.708,21.009-.882L627.5,201.656c3.226-1.862,5.076-4.312,5.076-6.718,0-1.971-1.26-3.784-3.548-5.105L506.4,119.033c-5.37-3.1-14.8-2.705-21.009.882L251.52,254.94c-3.225,1.863-5.076,4.312-5.076,6.718,0,1.971,1.26,3.784,3.548,5.105Z" transform="translate(-245.915 -116.424)" fill="#42e8e0"/>
    </g>
    <g id="Group_152" data-name="Group 152" transform="translate(246.18 113.684)">
      <path id="Path_336" data-name="Path 336" d="M632.772,166.231l-17.615,3.033-108.69-62.753c-5.453-3.147-14.978-2.753-21.274.883L277.254,227.446l-31.139,5.361v11.041l.013,0c-.015,2.013,1.181,3.937,3.667,5.372l122.626,70.8c5.453,3.149,14.977,2.753,21.273-.882l233.87-135.025c3.39-1.957,5.136-4.453,5.192-6.833l.017,0Z" transform="translate(-246.114 -87.788)" fill="url(#linear-gradient)"/>
      <path id="Path_337" data-name="Path 337" d="M372.42,313.037l-122.626-70.8c-5.452-3.149-4.768-8.647,1.528-12.282L485.192,94.933c6.3-3.636,15.821-4.031,21.274-.882l122.624,70.8c5.453,3.147,4.768,8.647-1.528,12.282L393.693,312.155C387.4,315.79,377.873,316.184,372.42,313.037Z" transform="translate(-246.114 -91.925)" fill="#24126a"/>
      <path id="Path_338" data-name="Path 338" d="M627.56,157.439,393.691,292.464c-6.3,3.635-15.82,4.029-21.273.882l-122.626-70.8a6.616,6.616,0,0,1-3.616-4.653c-.337,2.267.839,4.481,3.616,6.084l122.626,70.8c5.453,3.149,14.977,2.753,21.273-.882L627.56,158.871c3.772-2.176,5.513-5.022,5.144-7.63C632.379,153.423,630.651,155.655,627.56,157.439Z" transform="translate(-246.112 -72.233)" fill="#fff"/>
      <path id="Path_339" data-name="Path 339" d="M371.482,309.6,253.228,241.3c-5.276-3.046-4.614-8.367,1.479-11.885L484.237,96.933c6.092-3.518,15.308-3.9,20.586-.852l118.254,68.293c5.276,3.046,4.614,8.367-1.479,11.885L392.067,308.743C385.975,312.26,376.759,312.643,371.482,309.6Z" transform="translate(-244.934 -91.228)" fill="#453c9e" opacity="0.51"/>
    </g>
    <g id="Group_153" data-name="Group 153" transform="translate(250.53 113.06)">
      <path id="Path_340" data-name="Path 340" d="M380.514,309.828a18.63,18.63,0,0,1-9.128-2.1L253.132,239.437c-2.42-1.4-3.752-3.349-3.752-5.492,0-2.564,1.906-5.133,5.229-7.054L484.142,94.406c6.187-3.571,15.592-3.955,20.967-.852l118.254,68.293c2.42,1.4,3.752,3.349,3.752,5.492,0,2.563-1.906,5.135-5.231,7.054L392.353,306.878A24.332,24.332,0,0,1,380.514,309.828Zm-8.746-2.757c5.163,2.982,14.225,2.6,20.2-.854L621.5,173.732c3.082-1.78,4.85-4.11,4.85-6.393,0-1.859-1.2-3.575-3.371-4.831L504.728,94.214c-5.164-2.982-14.228-2.6-20.2.852L254.992,227.552c-3.082,1.78-4.85,4.109-4.85,6.393,0,1.861,1.2,3.576,3.371,4.831Z" transform="translate(-249.38 -91.456)" opacity="0.8" fill="url(#linear-gradient-2)" style="mix-blend-mode: lighten;isolation: isolate"/>
    </g>
    <g id="Group_156" data-name="Group 156" transform="translate(250.911 113.431)" opacity="0.1">
      <g id="Group_155" data-name="Group 155" clip-path="url(#clip-path)">
        <g id="Group_154" data-name="Group 154" transform="translate(191.751 141.053)">
          <path id="Path_342" data-name="Path 342" d="M450.8,245.174c0-14.853-10.428-32.914-23.292-40.34-6.444-3.72-12.275-4.065-16.492-1.617h0l-4.4,2.576,1.279.12c-2.322,2.842-3.674,7.031-3.674,12.369,0,14.853,10.428,32.914,23.291,40.34,4.421,2.552,8.553,3.516,12.073,3.08l-.1,1.181,4.47-2.616.055-.033.181-.105-.011,0C448.268,257.641,450.8,252.478,450.8,245.174Z" transform="translate(-390.112 -196.298)" fill="#9ffff8"/>
          <ellipse id="Ellipse_38" data-name="Ellipse 38" cx="19.017" cy="32.938" rx="19.017" ry="32.938" transform="translate(0 19.018) rotate(-30.002)" fill="#42e8e0"/>
        </g>
      </g>
    </g>
    <path id="Path_344" data-name="Path 344" d="M513.016,154.2a7.221,7.221,0,0,1-6.537,0c-1.8-1.042-1.8-2.731,0-3.773a7.226,7.226,0,0,1,6.536,0C514.82,151.466,514.82,153.155,513.016,154.2Z" transform="translate(86.051 40.92)" fill="#24126a" opacity="0.4"/>
    <path id="Path_345" data-name="Path 345" d="M494.209,139.565,507,146.953c1.564.9,1.368,2.479-.437,3.52h0a6.78,6.78,0,0,1-6.1.253l-12.8-7.388c-1.562-.9-1.367-2.477.438-3.52h0A6.783,6.783,0,0,1,494.209,139.565Z" transform="translate(79.907 37.373)" fill="#24126a" opacity="0.4"/>
    <path id="Path_346" data-name="Path 346" d="M439.409,106.3l12.795,7.387c1.564.9,1.368,2.479-.438,3.522h0a6.776,6.776,0,0,1-6.1.252l-12.8-7.387c-1.562-.9-1.367-2.479.438-3.52h0A6.775,6.775,0,0,1,439.409,106.3Z" transform="translate(61.715 26.329)" fill="#24126a" opacity="0.4"/>
    <path id="Path_347" data-name="Path 347" d="M513.016,150.754a7.229,7.229,0,0,1-6.537,0c-1.8-1.043-1.8-2.732,0-3.775a7.226,7.226,0,0,1,6.536,0C514.82,148.022,514.82,149.711,513.016,150.754Z" transform="translate(86.051 39.777)" fill="#42e8e0"/>
    <path id="Path_348" data-name="Path 348" d="M494.209,136.121,507,143.509c1.564.9,1.368,2.479-.437,3.52h0a6.776,6.776,0,0,1-6.1.253l-12.8-7.387c-1.562-.9-1.367-2.479.438-3.522h0A6.783,6.783,0,0,1,494.209,136.121Z" transform="translate(79.907 36.229)" fill="#42e8e0"/>
    <path id="Path_349" data-name="Path 349" d="M439.409,102.855l12.795,7.387c1.564.9,1.368,2.479-.438,3.522h0a6.781,6.781,0,0,1-6.1.253l-12.8-7.388c-1.562-.9-1.367-2.479.438-3.52h0A6.775,6.775,0,0,1,439.409,102.855Z" transform="translate(61.715 25.186)" fill="#42e8e0"/>
    <g id="Group_159" data-name="Group 159" transform="translate(602.264 326.063)" opacity="0.3">
      <path id="Path_350" data-name="Path 350" d="M581.961,272.54v-5.97l-1.652-.918c-.466,2.817-3.781,4.673-6.555,5.059l-18.878,11.041-8.24,2.974-26.3-13.572.607-.35c-2.247-1.05-3.458-3.452-4.674-5.644l-1.77,1.056-1.052.3v6.122h0a3.928,3.928,0,0,0,2.314,3.23l26.348,15.213a12.384,12.384,0,0,0,11.189,0l26.348-15.211a3.961,3.961,0,0,0,2.312-3.174c0-.051,0-.1,0-.153Z" transform="translate(-513.449 -246.793)" fill="url(#linear-gradient-3)"/>
      <path id="Path_351" data-name="Path 351" d="M565.216,270.569,546.338,281.61l-7.171,2.589v8.07a11.433,11.433,0,0,0,5.594-1.335l26.348-15.211a3.961,3.961,0,0,0,2.312-3.174c0-.051,0-.1,0-.153h0v-5.97l-1.509-.839h-.159C571.241,268.362,567.963,270.187,565.216,270.569Z" transform="translate(-504.911 -246.651)" fill="#0f054c" opacity="0.3"/>
      <g id="Group_157" data-name="Group 157" transform="translate(0)">
        <path id="Path_352" data-name="Path 352" d="M542.11,289.589l-26.348-15.211c-3.085-1.781-3.085-4.679,0-6.46l26.346-15.211a12.387,12.387,0,0,1,11.19,0l26.348,15.211c3.085,1.781,3.085,4.679,0,6.46L553.3,289.589A12.384,12.384,0,0,1,542.11,289.589Z" transform="translate(-513.449 -251.371)" fill="url(#linear-gradient-4)"/>
      </g>
      <g id="Group_158" data-name="Group 158" transform="translate(0)" opacity="0.3">
        <path id="Path_353" data-name="Path 353" d="M542.11,289.589l-26.348-15.211c-3.085-1.781-3.085-4.679,0-6.46l26.346-15.211a12.387,12.387,0,0,1,11.19,0l26.348,15.211c3.085,1.781,3.085,4.679,0,6.46L553.3,289.589A12.384,12.384,0,0,1,542.11,289.589Z" transform="translate(-513.449 -251.371)" fill="#0f054c"/>
      </g>
    </g>
    <g id="Group_166" data-name="Group 166" transform="translate(602.264 286.052)">
      <g id="Group_165" data-name="Group 165" transform="translate(0)">
        <path id="Path_354" data-name="Path 354" d="M547.5,275.3a10.161,10.161,0,0,1-4.966-1.184L516.188,258.9a3.182,3.182,0,0,1,0-6l26.345-15.212a11.009,11.009,0,0,1,9.933,0L578.814,252.9a3.184,3.184,0,0,1,0,6l-26.348,15.211A10.161,10.161,0,0,1,547.5,275.3Zm0-38.34a9.673,9.673,0,0,0-4.736,1.131L516.417,253.3a2.733,2.733,0,0,0,0,5.2l26.346,15.211a10.474,10.474,0,0,0,9.472,0L578.583,258.5a2.733,2.733,0,0,0,0-5.2l-26.348-15.212A9.672,9.672,0,0,0,547.5,236.958Z" transform="translate(-513.244 -216.296)" fill="#42e8e0"/>
        <g id="Group_164" data-name="Group 164">
          <path id="Path_355" data-name="Path 355" d="M581.961,249.283v-9.021l-1.652-.919c-.466,2.818-3.781,4.674-6.555,5.06l-18.878,11.039-8.24,2.976-26.3-13.572.607-.352c-2.247-1.05-3.458-3.451-4.674-5.642l-1.77,1.056-1.052.3v9.175h0a3.93,3.93,0,0,0,2.314,3.23L542.11,267.82a12.382,12.382,0,0,0,11.19,0l26.346-15.211a3.96,3.96,0,0,0,2.312-3.173c0-.052,0-.1,0-.155Z" transform="translate(-513.449 -215.516)" fill="#42e8e0" opacity="0.4"/>
          <g id="Group_163" data-name="Group 163">
            <g id="Group_162" data-name="Group 162">
              <path id="Path_356" data-name="Path 356" d="M581.961,242.5v-5.969l-1.652-.919c-.466,2.817-3.781,4.674-6.555,5.06l-18.878,11.039-8.24,2.976-26.3-13.571.607-.352c-2.247-1.05-3.458-3.451-4.674-5.642l-1.77,1.056-1.052.3V242.6h0a3.93,3.93,0,0,0,2.314,3.23l26.348,15.211a12.382,12.382,0,0,0,11.19,0l26.346-15.211a3.958,3.958,0,0,0,2.312-3.173c0-.052,0-.1,0-.154Z" transform="translate(-513.449 -216.754)" fill="url(#linear-gradient-3)"/>
              <path id="Path_357" data-name="Path 357" d="M565.216,240.531l-18.878,11.039-7.171,2.589v8.072a11.442,11.442,0,0,0,5.6-1.336l26.346-15.211a3.958,3.958,0,0,0,2.312-3.173c0-.052,0-.1,0-.155h0V236.39l-1.509-.839h-.159C571.241,238.323,567.963,240.149,565.216,240.531Z" transform="translate(-504.911 -216.612)" fill="#0f054c" opacity="0.3"/>
              <g id="Group_160" data-name="Group 160">
                <path id="Path_358" data-name="Path 358" d="M542.11,259.552,515.763,244.34c-3.085-1.782-3.085-4.679,0-6.461l26.346-15.211a12.387,12.387,0,0,1,11.19,0l26.348,15.212c3.085,1.781,3.085,4.679,0,6.46L553.3,259.552A12.386,12.386,0,0,1,542.11,259.552Z" transform="translate(-513.449 -221.332)" fill="url(#linear-gradient-4)"/>
              </g>
              <g id="Group_161" data-name="Group 161" transform="translate(0.002 20.15)">
                <path id="Path_359" data-name="Path 359" d="M579.646,239.318,553.3,254.53a12.387,12.387,0,0,1-11.19,0l-26.348-15.211a4.16,4.16,0,0,1-2.286-2.858c-.181,1.291.58,2.616,2.286,3.6l26.348,15.211a12.378,12.378,0,0,0,11.19,0l26.346-15.211c1.706-.984,2.467-2.311,2.286-3.6A4.16,4.16,0,0,1,579.646,239.318Z" transform="translate(-513.45 -236.46)" fill="#fff"/>
              </g>
            </g>
          </g>
        </g>
      </g>
    </g>
    <g id="Group_169" data-name="Group 169" transform="translate(484.958 361.563)" opacity="0.3">
      <path id="Path_360" data-name="Path 360" d="M493.891,299.192v-5.97l-1.652-.918c-.466,2.817-3.781,4.674-6.555,5.059L466.807,308.4l-8.24,2.974-26.3-13.571.607-.35c-2.247-1.05-3.458-3.452-4.674-5.644l-1.77,1.056-1.052.3v6.122h0a3.926,3.926,0,0,0,2.314,3.23l26.348,15.212a12.386,12.386,0,0,0,11.19,0l26.346-15.211a3.962,3.962,0,0,0,2.312-3.174c0-.051,0-.1,0-.153Z" transform="translate(-425.38 -273.445)" fill="url(#linear-gradient-3)"/>
      <path id="Path_361" data-name="Path 361" d="M477.147,297.221l-18.878,11.041-7.171,2.589v8.072a11.455,11.455,0,0,0,5.6-1.336l26.346-15.211a3.962,3.962,0,0,0,2.312-3.174c0-.051,0-.1,0-.153h0v-5.97l-1.509-.839h-.159C483.172,295.014,479.894,296.839,477.147,297.221Z" transform="translate(-416.842 -273.303)" fill="#0f054c" opacity="0.3"/>
      <g id="Group_167" data-name="Group 167">
        <path id="Path_362" data-name="Path 362" d="M454.041,316.241,427.694,301.03c-3.085-1.781-3.085-4.679,0-6.46l26.346-15.211a12.386,12.386,0,0,1,11.19,0l26.348,15.211c3.085,1.781,3.085,4.679,0,6.46l-26.346,15.211A12.378,12.378,0,0,1,454.041,316.241Z" transform="translate(-425.38 -278.023)" fill="url(#linear-gradient-4)"/>
      </g>
      <g id="Group_168" data-name="Group 168" opacity="0.3">
        <path id="Path_363" data-name="Path 363" d="M454.041,316.241,427.694,301.03c-3.085-1.781-3.085-4.679,0-6.46l26.346-15.211a12.386,12.386,0,0,1,11.19,0l26.348,15.211c3.085,1.781,3.085,4.679,0,6.46l-26.346,15.211A12.378,12.378,0,0,1,454.041,316.241Z" transform="translate(-425.38 -278.023)" fill="#0f054c"/>
      </g>
    </g>
    <g id="Group_177" data-name="Group 177" transform="translate(484.958 318.648)">
      <g id="Group_176" data-name="Group 176">
        <path id="Path_364" data-name="Path 364" d="M459.431,299.771a10.158,10.158,0,0,1-4.966-1.185l-26.346-15.212a3.182,3.182,0,0,1,0-6l26.346-15.211a11,11,0,0,1,9.931,0l26.349,15.211a3.183,3.183,0,0,1,0,6L464.4,298.584A10.153,10.153,0,0,1,459.431,299.771Zm-4.735-1.585a10.488,10.488,0,0,0,9.47,0l26.348-15.211a2.734,2.734,0,0,0,0-5.2l-26.346-15.211a10.482,10.482,0,0,0-9.472,0l-26.346,15.211a2.734,2.734,0,0,0,0,5.2Z" transform="translate(-425.176 -240.768)" fill="#42e8e0"/>
        <g id="Group_175" data-name="Group 175">
          <path id="Path_365" data-name="Path 365" d="M493.891,273.756v-9.023l-1.652-.919c-.466,2.819-3.781,4.674-6.555,5.06l-18.878,11.039-8.24,2.976-26.3-13.572.607-.35c-2.247-1.051-3.458-3.453-4.674-5.644l-1.77,1.056-1.052.3v9.175h0a3.93,3.93,0,0,0,2.314,3.23l26.348,15.211a12.378,12.378,0,0,0,11.19,0l26.346-15.211a3.958,3.958,0,0,0,2.312-3.173c0-.052,0-.1,0-.154Z" transform="translate(-425.38 -239.988)" fill="#42e8e0" opacity="0.4"/>
          <g id="Group_174" data-name="Group 174">
            <g id="Group_173" data-name="Group 173">
              <path id="Path_366" data-name="Path 366" d="M493.891,266.974V261l-1.652-.919c-.466,2.818-3.781,4.674-6.555,5.06l-18.878,11.039-8.24,2.976-26.3-13.571.607-.35c-2.247-1.051-3.458-3.452-4.674-5.644l-1.77,1.056-1.052.3v6.122h0a3.93,3.93,0,0,0,2.314,3.23l26.348,15.211a12.378,12.378,0,0,0,11.19,0L491.578,270.3a3.958,3.958,0,0,0,2.312-3.173c0-.051,0-.1,0-.155Z" transform="translate(-425.38 -241.226)" fill="url(#linear-gradient-3)"/>
              <path id="Path_367" data-name="Path 367" d="M477.147,265l-18.878,11.039-7.171,2.591v8.07a11.439,11.439,0,0,0,5.6-1.336l26.346-15.211a3.958,3.958,0,0,0,2.312-3.173c0-.051,0-.1,0-.154l0,0v-5.97l-1.509-.839h-.159C483.172,262.795,479.894,264.621,477.147,265Z" transform="translate(-416.842 -241.084)" fill="#0f054c" opacity="0.3"/>
              <g id="Group_170" data-name="Group 170">
                <path id="Path_368" data-name="Path 368" d="M454.041,284.024l-26.348-15.211c-3.085-1.782-3.085-4.679,0-6.46L454.04,247.14a12.382,12.382,0,0,1,11.19,0l26.348,15.211c3.085,1.781,3.085,4.679,0,6.46l-26.346,15.211A12.386,12.386,0,0,1,454.041,284.024Z" transform="translate(-425.38 -245.804)" fill="url(#linear-gradient-4)"/>
              </g>
              <g id="Group_171" data-name="Group 171" transform="translate(7.262 4.1)">
                <path id="Path_369" data-name="Path 369" d="M457.826,280.239a9.19,9.19,0,0,1-4.486-1.07l-20.584-11.885a2.89,2.89,0,0,1,0-5.448l20.584-11.885a9.94,9.94,0,0,1,8.972,0L482.9,261.837a2.89,2.89,0,0,1,0,5.448L462.312,279.17A9.187,9.187,0,0,1,457.826,280.239Zm-4.256-1.47a9.421,9.421,0,0,0,8.511,0l20.584-11.885a2.44,2.44,0,0,0,0-4.646l-20.583-11.884a9.421,9.421,0,0,0-8.511,0l-20.584,11.885a2.44,2.44,0,0,0,0,4.646Z" transform="translate(-430.832 -248.882)" fill="#5351af"/>
              </g>
              <g id="Group_172" data-name="Group 172" transform="translate(0.002 20.15)">
                <path id="Path_370" data-name="Path 370" d="M491.577,263.79,465.231,279a12.386,12.386,0,0,1-11.19,0L427.693,263.79a4.159,4.159,0,0,1-2.286-2.858c-.181,1.291.579,2.617,2.286,3.6l26.348,15.213a12.386,12.386,0,0,0,11.19,0l26.346-15.211c1.706-.986,2.467-2.312,2.286-3.6A4.159,4.159,0,0,1,491.577,263.79Z" transform="translate(-425.381 -260.932)" fill="#fff"/>
              </g>
            </g>
          </g>
        </g>
      </g>
    </g>
    <g id="Group_180" data-name="Group 180" transform="translate(259.632 149.799)" opacity="0.3">
      <path id="Path_371" data-name="Path 371" d="M324.724,140.207v-5.97l-1.652-.918c-.466,2.817-3.781,4.674-6.555,5.059L297.64,149.419l-8.24,2.974-26.3-13.572.607-.35c-2.247-1.05-3.458-3.452-4.674-5.644l-1.77,1.056-1.052.3V140.3h0a3.926,3.926,0,0,0,2.314,3.23l26.348,15.212a12.387,12.387,0,0,0,11.19,0l26.346-15.211a3.962,3.962,0,0,0,2.312-3.174c0-.051,0-.1,0-.153Z" transform="translate(-256.213 -114.46)" fill="url(#linear-gradient-3)"/>
      <path id="Path_372" data-name="Path 372" d="M307.98,138.236,289.1,149.277l-7.171,2.589v8.072a11.457,11.457,0,0,0,5.6-1.336l26.346-15.211a3.962,3.962,0,0,0,2.312-3.174c0-.051,0-.1,0-.153h0V134.1l-1.509-.839h-.159C314,136.029,310.727,137.854,307.98,138.236Z" transform="translate(-247.675 -114.318)" fill="#0f054c" opacity="0.3"/>
      <g id="Group_178" data-name="Group 178">
        <path id="Path_373" data-name="Path 373" d="M284.874,157.256l-26.348-15.211c-3.085-1.781-3.085-4.679,0-6.46l26.346-15.211a12.386,12.386,0,0,1,11.19,0l26.348,15.211c3.085,1.781,3.085,4.679,0,6.46l-26.346,15.211A12.378,12.378,0,0,1,284.874,157.256Z" transform="translate(-256.213 -119.038)" fill="url(#linear-gradient-4)"/>
      </g>
      <g id="Group_179" data-name="Group 179" opacity="0.3">
        <path id="Path_374" data-name="Path 374" d="M284.874,157.256l-26.348-15.211c-3.085-1.781-3.085-4.679,0-6.46l26.346-15.211a12.386,12.386,0,0,1,11.19,0l26.348,15.211c3.085,1.781,3.085,4.679,0,6.46l-26.346,15.211A12.378,12.378,0,0,1,284.874,157.256Z" transform="translate(-256.213 -119.038)" fill="#0f054c"/>
      </g>
    </g>
    <g id="Group_188" data-name="Group 188" transform="translate(259.632 110.789)">
      <g id="Group_187" data-name="Group 187" transform="translate(0 0)">
        <path id="Path_375" data-name="Path 375" d="M290.264,143.717a10.147,10.147,0,0,1-4.966-1.185L258.951,127.32a3.183,3.183,0,0,1,0-6L285.3,106.107a11,11,0,0,1,9.93,0l26.348,15.211a3.183,3.183,0,0,1,0,6L295.23,142.531A10.14,10.14,0,0,1,290.264,143.717Zm0-38.34a9.671,9.671,0,0,0-4.735,1.131l-26.346,15.211a2.733,2.733,0,0,0,0,5.2L285.53,142.13a10.468,10.468,0,0,0,9.469,0l26.348-15.211a2.733,2.733,0,0,0,0-5.2L295,106.508A9.673,9.673,0,0,0,290.263,105.377Z" transform="translate(-256.009 -84.715)" fill="#42e8e0"/>
        <g id="Group_186" data-name="Group 186">
          <path id="Path_376" data-name="Path 376" d="M324.724,117.7v-9.023l-1.652-.918c-.466,2.817-3.781,4.674-6.553,5.059L297.64,123.861l-8.24,2.974-26.3-13.571.607-.35c-2.247-1.05-3.458-3.452-4.674-5.644l-1.77,1.056-1.052.3V117.8h0a3.928,3.928,0,0,0,2.314,3.23l26.348,15.212a12.386,12.386,0,0,0,11.19,0l26.346-15.211a3.962,3.962,0,0,0,2.312-3.174c0-.051,0-.1,0-.153Z" transform="translate(-256.213 -83.935)" fill="#42e8e0" opacity="0.4"/>
          <g id="Group_185" data-name="Group 185">
            <g id="Group_184" data-name="Group 184">
              <path id="Path_377" data-name="Path 377" d="M324.724,110.92v-5.97l-1.652-.918c-.466,2.817-3.781,4.673-6.553,5.059L297.64,120.132l-8.24,2.974-26.3-13.572.607-.35c-2.247-1.051-3.458-3.452-4.674-5.644l-1.77,1.056-1.052.3v6.122h0a3.928,3.928,0,0,0,2.314,3.23l26.348,15.212a12.387,12.387,0,0,0,11.19,0l26.346-15.211a3.962,3.962,0,0,0,2.312-3.174c0-.051,0-.1,0-.153Z" transform="translate(-256.213 -85.173)" fill="url(#linear-gradient-3)"/>
              <path id="Path_378" data-name="Path 378" d="M307.982,108.949,289.1,119.99l-7.171,2.589v8.072a11.458,11.458,0,0,0,5.6-1.336L313.873,114.1a3.962,3.962,0,0,0,2.312-3.174c0-.051,0-.1,0-.153h0v-5.97l-1.509-.839h-.159C314,106.742,310.727,108.567,307.982,108.949Z" transform="translate(-247.675 -85.031)" fill="#0f054c" opacity="0.3"/>
              <path id="Path_379" data-name="Path 379" d="M263.006,113.406l24.968-14.415a3.96,3.96,0,0,1,3.582,0l24.532,14.163-.272.159c2.772-.386,6.087-2.242,6.553-5.059L294.839,92.942l-8.01-2.118-6.523,3.835-21.974,13.1C259.548,109.954,260.759,112.355,263.006,113.406Z" transform="translate(-255.51 -89.395)" fill="url(#linear-gradient-14)"/>
              <path id="Path_380" data-name="Path 380" d="M289.765,91.6l-2.937-.777-6.523,3.835-21.974,13.1c1.216,2.191,2.427,4.593,4.674,5.644l24.968-14.415a3.637,3.637,0,0,1,1.792-.428Z" transform="translate(-255.51 -89.395)" fill="#0f054c" opacity="0.3"/>
              <g id="Group_181" data-name="Group 181">
                <path id="Path_381" data-name="Path 381" d="M284.874,127.969l-26.348-15.211c-3.085-1.781-3.085-4.679,0-6.46l26.346-15.211a12.386,12.386,0,0,1,11.19,0L322.411,106.3c3.085,1.781,3.085,4.679,0,6.46l-26.346,15.211A12.378,12.378,0,0,1,284.874,127.969Zm7.386-34.687a3.967,3.967,0,0,0-3.583,0l-26.348,15.211a1.093,1.093,0,0,0,0,2.069l26.348,15.212a3.967,3.967,0,0,0,3.583,0l26.346-15.211a1.092,1.092,0,0,0,0-2.069Z" transform="translate(-256.213 -89.751)" fill="url(#linear-gradient-4)"/>
              </g>
              <g id="Group_182" data-name="Group 182" transform="translate(0.002 3.103)">
                <path id="Path_382" data-name="Path 382" d="M317.266,107.721,290.918,92.509a3.964,3.964,0,0,0-3.582,0L260.989,107.72c-.658.381-.875.92-.655,1.407a1.532,1.532,0,0,1,.655-.662l26.348-15.211a3.96,3.96,0,0,1,3.582,0l26.348,15.211a1.524,1.524,0,0,1,.655.662C318.143,108.64,317.926,108.1,317.266,107.721Z" transform="translate(-254.874 -92.081)" fill="#fff"/>
                <path id="Path_383" data-name="Path 383" d="M322.41,107.736l-26.346,15.211a12.378,12.378,0,0,1-11.19,0l-26.348-15.211a4.159,4.159,0,0,1-2.286-2.858c-.181,1.291.579,2.617,2.286,3.6l26.348,15.212a12.386,12.386,0,0,0,11.19,0l26.346-15.211c1.706-.986,2.467-2.312,2.286-3.6A4.154,4.154,0,0,1,322.41,107.736Z" transform="translate(-256.214 -87.833)" fill="#fff"/>
              </g>
              <g id="Group_183" data-name="Group 183" transform="translate(1.052 0.607)">
                <path id="Path_384" data-name="Path 384" d="M285.357,127.389l-26.348-15.212c-2.675-1.544-2.675-4.056,0-5.6l26.346-15.211a10.738,10.738,0,0,1,9.7,0L321.4,106.577c2.675,1.544,2.675,4.056,0,5.6l-26.346,15.211A10.739,10.739,0,0,1,285.357,127.389ZM292.741,92.7a5.612,5.612,0,0,0-5.071,0l-26.346,15.211c-1.4.807-1.4,2.121,0,2.928l26.348,15.211a5.612,5.612,0,0,0,5.071,0l26.346-15.211c1.4-.807,1.4-2.121,0-2.928Z" transform="translate(-257.003 -90.207)" fill="url(#linear-gradient-4)"/>
              </g>
            </g>
            <path id="Path_385" data-name="Path 385" d="M290.92,92.509a3.967,3.967,0,0,0-3.583,0L260.99,107.72a1.093,1.093,0,0,0,0,2.069L287.337,125a3.967,3.967,0,0,0,3.583,0l26.346-15.211a1.092,1.092,0,0,0,0-2.069Z" transform="translate(-254.873 -88.978)" fill="#42e8e0" opacity="0.4"/>
          </g>
        </g>
      </g>
    </g>
    <g id="Group_189" data-name="Group 189" transform="matrix(0.719, 0.695, -0.695, 0.719, 456.865, 97.705)">
      <path id="Path_387" data-name="Path 387" d="M46.583,43.521c0-14.853-10.428-32.913-23.292-40.34C16.847-.54,11.015-.885,6.8,1.563h0l-4.4,2.576,1.279.12C1.352,7.1,0,11.29,0,16.627,0,31.48,10.428,49.541,23.291,56.968c4.421,2.551,8.553,3.515,12.073,3.08l-.1,1.18,4.47-2.616.055-.032.181-.107-.011,0C44.056,55.988,46.583,50.827,46.583,43.521Z" transform="translate(14.1 5.355)" fill="#9ffff8"/>
      <ellipse id="Ellipse_39" data-name="Ellipse 39" cx="19.017" cy="32.938" rx="19.017" ry="32.938" transform="translate(0 19.018) rotate(-30.002)" fill="#42e8e0"/>
    </g>
    <g id="Group_190" data-name="Group 190" transform="matrix(0.966, -0.259, 0.259, 0.966, 381.008, 65.165)">
      <path id="Path_388" data-name="Path 388" d="M8.034,57.718C-.589,45.625-2.584,24.865,3.579,11.351,6.665,4.581,11.214.914,16.069.46h0L21.149,0l-.971.84c3.54.966,7.073,3.591,10.171,7.937C38.972,20.871,40.966,41.631,34.8,55.145c-2.118,4.645-4.923,7.828-8.042,9.517l.766.9-5.159.465-.064.007-.209.019.008-.008C17.329,66.4,12.274,63.667,8.034,57.718Z" transform="translate(0 1.822)" fill="#9ffff8"/>
      <ellipse id="Ellipse_40" data-name="Ellipse 40" cx="32.938" cy="19.017" rx="32.938" ry="19.017" transform="matrix(-0.096, -0.995, 0.995, -0.096, 8.549, 69.212)" fill="#42e8e0"/>
    </g>
    <g id="Group_191" data-name="Group 191" transform="translate(396.08 190.082)" opacity="0.1">
      <path id="Path_389" data-name="Path 389" d="M415.822,196.823c0-14.853-10.428-32.914-23.291-40.34-6.444-3.72-12.277-4.065-16.493-1.617h0l-4.4,2.576,1.279.12c-2.322,2.842-3.674,7.031-3.674,12.369,0,14.853,10.428,32.914,23.291,40.34,4.42,2.552,8.553,3.516,12.073,3.08l-.1,1.181,4.47-2.616.056-.032.181-.107-.011,0C413.3,209.29,415.822,204.127,415.822,196.823Z" transform="translate(-355.139 -147.947)" fill="#9ffff8"/>
      <ellipse id="Ellipse_41" data-name="Ellipse 41" cx="19.017" cy="32.938" rx="19.017" ry="32.938" transform="translate(0 19.018) rotate(-30.001)" fill="#42e8e0"/>
    </g>
    <path id="Path_390" data-name="Path 390" d="M400.17,222.289c-16.069,0-32.137-3.531-44.368-10.593-11.9-6.868-18.447-16.013-18.447-25.751s6.551-18.881,18.445-25.747c24.463-14.126,64.269-14.124,88.735,0,11.895,6.868,18.447,16.013,18.445,25.75s-6.549,18.882-18.444,25.748l-.116-.2.116.2C432.3,218.758,416.237,222.289,400.17,222.289Zm0-72.229c-15.984,0-31.969,3.511-44.136,10.539-11.745,6.781-18.213,15.783-18.213,25.346s6.468,18.57,18.215,25.35c24.338,14.055,63.936,14.055,88.274,0h0c11.745-6.78,18.213-15.781,18.213-25.347S456.05,167.379,444.3,160.6C432.134,153.571,416.151,150.06,400.167,150.06Z" transform="translate(30.356 40.907)" fill="#42e8e0" opacity="0.4"/>
    <path id="Path_391" data-name="Path 391" d="M404.378,234.457c-20.394,0-40.781-4.479-56.305-13.444-15.082-8.708-23.389-20.3-23.389-32.64s8.306-23.933,23.388-32.64c31.046-17.924,81.559-17.923,112.605,0,15.083,8.708,23.389,20.3,23.389,32.64s-8.306,23.933-23.388,32.64C445.158,229.976,424.765,234.457,404.378,234.457Zm-.005-91.71c-20.307,0-40.611,4.462-56.071,13.388-14.933,8.622-23.156,20.07-23.156,32.239s8.224,23.619,23.158,32.239c30.919,17.854,81.225,17.855,112.144,0,14.933-8.621,23.156-20.07,23.156-32.239s-8.224-23.617-23.158-32.239C444.987,147.21,424.678,142.747,404.372,142.747Z" transform="translate(26.149 38.48)" fill="#42e8e0" opacity="0.2"/>
    <path id="Path_392" data-name="Path 392" d="M396.854,212.7c-12.662,0-25.325-2.783-34.966-8.349-9.382-5.417-14.55-12.634-14.55-20.322s5.167-14.9,14.549-20.321c19.282-11.129,50.652-11.129,69.931,0,9.384,5.418,14.552,12.635,14.552,20.322s-5.168,14.9-14.55,20.321l-.116-.2.116.2C422.18,209.921,409.517,212.7,396.854,212.7Zm0-56.883c-12.579,0-25.158,2.764-34.735,8.293-9.233,5.331-14.319,12.406-14.319,19.92s5.087,14.589,14.32,19.921c19.154,11.061,50.318,11.058,69.47,0,9.233-5.331,14.319-12.4,14.319-19.92s-5.085-14.589-14.32-19.921C422.011,158.584,409.432,155.82,396.853,155.82Z" transform="translate(33.67 42.82)" fill="#42e8e0"/>
    <g id="Group_194" data-name="Group 194" transform="translate(394.055 143.121)">
      <g id="Group_193" data-name="Group 193" clip-path="url(#clip-path-2)">
        <g id="Group_192" data-name="Group 192" transform="translate(2.026 46.961)">
          <path id="Path_393" data-name="Path 393" d="M415.822,196.823c0-14.853-10.428-32.914-23.291-40.34-6.444-3.72-12.277-4.065-16.493-1.617h0l-4.4,2.576,1.279.12c-2.322,2.842-3.674,7.031-3.674,12.369,0,14.853,10.428,32.914,23.291,40.34,4.42,2.552,8.553,3.516,12.073,3.08l-.1,1.181,4.47-2.616.056-.032.181-.107-.011,0C413.3,209.29,415.822,204.127,415.822,196.823Z" transform="translate(-355.139 -147.947)" fill="#9ffff8"/>
          <ellipse id="Ellipse_42" data-name="Ellipse 42" cx="19.017" cy="32.938" rx="19.017" ry="32.938" transform="translate(0 19.018) rotate(-30.001)" fill="#42e8e0"/>
        </g>
      </g>
    </g>
    <g id="Group_195" data-name="Group 195" transform="translate(292.938 236.707)">
      <path id="Path_395" data-name="Path 395" d="M356.185,248.164l-73.151-42.233a3.237,3.237,0,0,1,0-5.606l11.167-6.5a12.065,12.065,0,0,1,12.065,0l73.149,42.233a3.237,3.237,0,0,1,0,5.606l-11.167,6.5A12.063,12.063,0,0,1,356.185,248.164Z" transform="translate(-281.152 -181.657)" fill="#24126a" opacity="0.4"/>
      <path id="Path_396" data-name="Path 396" d="M312.975,203.828l-11.708-6.76,2.328-1.344,11.708,6.76Z" transform="translate(-274.562 -180.489)" fill="#42e8e0"/>
      <path id="Path_397" data-name="Path 397" d="M335.732,217.324l-3.6-2.076,2.328-1.344,3.6,2.076Z" transform="translate(-264.314 -174.454)" fill="#42e8e0"/>
      <path id="Path_398" data-name="Path 398" d="M316.045,205.678l-3.6-2.076,2.328-1.344,3.6,2.076Z" transform="translate(-270.85 -178.32)" fill="#42e8e0"/>
      <path id="Path_399" data-name="Path 399" d="M362.282,242.381a12.318,12.318,0,0,1-6.164-1.648L282.968,198.5a3.5,3.5,0,0,1,0-6.064l11.166-6.5a12.36,12.36,0,0,1,12.33,0l73.151,42.234a3.5,3.5,0,0,1,0,6.063l-11.167,6.5A12.32,12.32,0,0,1,362.282,242.381ZM300.3,184.815a11.8,11.8,0,0,0-5.9,1.577l-11.167,6.5a2.973,2.973,0,0,0,0,5.149l73.151,42.233a11.829,11.829,0,0,0,11.8,0l11.167-6.5a2.971,2.971,0,0,0,0-5.147L306.2,186.392A11.8,11.8,0,0,0,300.3,184.815Z" transform="translate(-281.218 -184.286)" fill="#42e8e0"/>
    </g>
  </g>
</svg>
