<svg xmlns="http://www.w3.org/2000/svg" width="28" height="28" viewBox="0 0 28 28">
  <g id="Trending" transform="translate(-48 -603)">
    <path id="_298779_flame_icon" data-name="298779_flame_icon" d="M129.706,45c2.311,7.283-2.795,7.541-5.61,12.173-1.96,3.225-2.29,10.323,4.773,12.182-2.971-1.834-3.609-7.154-.4-10.486-.83,3.231.695,5.3,2.611,4.542,1.878-.745,3.1.838,3.066,2.638a3.049,3.049,0,0,1-1.518,2.893,8.729,8.729,0,0,0,6.448-8.833c0-4.494-3.411-5.117-1.694-8.884-2.047.207-2.753,1.776-2.553,4.365.132,1.7-1.386,2.875-2.509,2.092a1.862,1.862,0,0,1-.088-2.816C133.923,52.893,134.591,48.383,129.706,45Z" transform="translate(-77.063 581.202) rotate(-9)" fill="#e5be3d"/>
    <rect id="Rectangle_339" data-name="Rectangle 339" width="28" height="28" transform="translate(48 603)" fill="none"/>
  </g>
</svg>
